<svg width="1200" height="675" viewBox="0 0 1200 675" xmlns="http://www.w3.org/2000/svg">
  <defs>
    <linearGradient id="bg" x1="0" y1="0" x2="1" y2="1">
      <stop offset="0" stop-color="#07111f"/>
      <stop offset="0.58" stop-color="#10233a"/>
      <stop offset="1" stop-color="#073d38"/>
    </linearGradient>
    <linearGradient id="card" x1="0" y1="0" x2="1" y2="1">
      <stop offset="0" stop-color="#f8fffd"/>
      <stop offset="1" stop-color="#d7fff0"/>
    </linearGradient>
    <filter id="softShadow" x="-20%" y="-20%" width="140%" height="140%">
      <feDropShadow dx="0" dy="18" stdDeviation="24" flood-color="#000000" flood-opacity="0.35"/>
    </filter>
  </defs>
  <rect width="1200" height="675" fill="url(#bg)"/>
  <g opacity="0.18">
    <path d="M72 112 H1128 M72 212 H1128 M72 312 H1128 M72 412 H1128 M72 512 H1128" stroke="#79ffe1"/>
    <path d="M166 74 V604 M310 74 V604 M454 74 V604 M598 74 V604 M742 74 V604 M886 74 V604 M1030 74 V604" stroke="#79ffe1"/>
  </g>
  <circle cx="970" cy="155" r="145" fill="#54ffd7" opacity="0.09"/>
  <circle cx="1025" cy="500" r="210" fill="#2c7dff" opacity="0.10"/>

  <text x="72" y="58" font-family="Inter, Arial, sans-serif" font-size="26" font-weight="800" fill="#45ffd2">The Signal / Сигнал</text>
  <text x="72" y="165" font-family="Inter, Arial, sans-serif" font-size="68" font-weight="900" fill="#ffffff">ИИ меняет</text>
  <text x="72" y="238" font-family="Inter, Arial, sans-serif" font-size="68" font-weight="900" fill="#ffffff">работу</text>
  <text x="72" y="326" font-family="Inter, Arial, sans-serif" font-size="42" font-weight="800" fill="#ffe79a">Кто потеряет</text>
  <text x="72" y="378" font-family="Inter, Arial, sans-serif" font-size="42" font-weight="800" fill="#ffe79a">зарплату?</text>
  <text x="74" y="462" font-family="Inter, Arial, sans-serif" font-size="25" font-weight="600" fill="#c8d7e8">AI-агент ускоряет рутину.</text>
  <text x="74" y="500" font-family="Inter, Arial, sans-serif" font-size="25" font-weight="600" fill="#c8d7e8">Цена задач меняется первой.</text>

  <g filter="url(#softShadow)">
    <rect x="718" y="116" width="356" height="430" rx="38" fill="url(#card)"/>
    <text x="896" y="178" text-anchor="middle" font-family="Inter, Arial, sans-serif" font-size="28" font-weight="900" fill="#0e1a2a">AI-агент</text>
    <rect x="766" y="226" width="260" height="58" rx="18" fill="#ffffff"/>
    <text x="896" y="263" text-anchor="middle" font-family="Inter, Arial, sans-serif" font-size="23" font-weight="800" fill="#0d796b">черновик готов</text>
    <rect x="766" y="306" width="260" height="58" rx="18" fill="#ffffff"/>
    <text x="896" y="343" text-anchor="middle" font-family="Inter, Arial, sans-serif" font-size="23" font-weight="800" fill="#0d796b">таблица проверена</text>
    <rect x="766" y="386" width="260" height="58" rx="18" fill="#fff2cb"/>
    <text x="896" y="423" text-anchor="middle" font-family="Inter, Arial, sans-serif" font-size="23" font-weight="900" fill="#a65c00">час стал дешевле</text>
    <rect x="796" y="484" width="200" height="48" rx="24" fill="#0e8f7f"/>
    <text x="896" y="516" text-anchor="middle" font-family="Inter, Arial, sans-serif" font-size="22" font-weight="900" fill="#ffffff">проверить себя</text>
  </g>
  <rect x="72" y="592" width="1056" height="44" rx="22" fill="#06101c" opacity="0.62"/>
  <text x="600" y="621" text-anchor="middle" font-family="Inter, Arial, sans-serif" font-size="18" font-weight="800" fill="#ffffff">Рутину агенту. Решение человеку</text>
</svg>
