<svg xmlns="http://www.w3.org/2000/svg" width="1200" height="675" viewBox="0 0 1200 675">
  <defs>
    <linearGradient id="bg" x1="0" y1="0" x2="1" y2="1">
      <stop offset="0" stop-color="#06111f"/>
      <stop offset="0.6" stop-color="#0f172a"/>
      <stop offset="1" stop-color="#073042"/>
    </linearGradient>
    <filter id="soft"><feGaussianBlur stdDeviation="18"/></filter>
  </defs>
  <rect x="0" y="0" width="1200" height="675" fill="url(#bg)"/>
  <circle cx="1000" cy="120" r="165" fill="#0ea5e9" opacity="0.15" filter="url(#soft)"/>
  <circle cx="160" cy="600" r="170" fill="#14b8a6" opacity="0.14" filter="url(#soft)"/>
  <g opacity="0.22" stroke="#7dd3fc" stroke-width="1">
    <path d="M80 592 C242 500 455 523 650 424 C830 332 990 340 1135 278" fill="none"/>
    <path d="M98 532 C280 458 470 472 660 378 C824 298 984 292 1130 214" fill="none"/>
  </g>
  <g font-family="Arial, Helvetica, sans-serif">
    <text x="70" y="76" font-size="23" font-weight="800" fill="#7dd3fc">The Signal / Сигнал</text>
    <text x="70" y="148" font-size="54" font-weight="900" fill="#ffffff">Ставка — не ваш кредит</text>
    <text x="72" y="196" font-size="25" fill="#cbd5e1">До личного предложения она проходит несколько фильтров</text>
  </g>
  <g font-family="Arial, Helvetica, sans-serif" text-anchor="middle">
    <rect x="80" y="292" width="168" height="112" rx="23" fill="#eff6ff" stroke="#60a5fa" stroke-width="2"/>
    <text x="164" y="338" font-size="24" font-weight="900" fill="#1e3a8a">ЦБ</text>
    <text x="164" y="371" font-size="19" font-weight="700" fill="#475569">14,25%</text>
    <path d="M250 348 H294" stroke="#7dd3fc" stroke-width="5" stroke-linecap="round"/>
    <rect x="296" y="292" width="168" height="112" rx="23" fill="#ecfeff" stroke="#22d3ee" stroke-width="2"/>
    <text x="380" y="338" font-size="24" font-weight="900" fill="#0e7490">рынок</text>
    <text x="380" y="371" font-size="18" font-weight="700" fill="#475569">ожидания</text>
    <path d="M466 348 H510" stroke="#7dd3fc" stroke-width="5" stroke-linecap="round"/>
    <rect x="512" y="292" width="168" height="112" rx="23" fill="#f0fdf4" stroke="#34d399" stroke-width="2"/>
    <text x="596" y="338" font-size="24" font-weight="900" fill="#166534">банк</text>
    <text x="596" y="371" font-size="18" font-weight="700" fill="#475569">маржа</text>
    <path d="M682 348 H726" stroke="#7dd3fc" stroke-width="5" stroke-linecap="round"/>
    <rect x="728" y="292" width="168" height="112" rx="23" fill="#fff7ed" stroke="#fb923c" stroke-width="2"/>
    <text x="812" y="338" font-size="24" font-weight="900" fill="#9a3412">риск</text>
    <text x="812" y="371" font-size="18" font-weight="700" fill="#475569">заемщик</text>
    <path d="M898 348 H942" stroke="#7dd3fc" stroke-width="5" stroke-linecap="round"/>
    <rect x="944" y="276" width="176" height="144" rx="26" fill="#fef2f2" stroke="#fb7185" stroke-width="2"/>
    <text x="1032" y="334" font-size="25" font-weight="900" fill="#991b1b">договор</text>
    <text x="1032" y="371" font-size="18" font-weight="700" fill="#475569">ваша цена</text>
  </g>
  <rect x="180" y="508" width="840" height="66" rx="22" fill="#061827" stroke="#0891b2" stroke-width="1.6"/>
  <text x="600" y="550" text-anchor="middle" font-family="Arial, Helvetica, sans-serif" font-size="23" font-weight="900" fill="#ffffff">Снижение ставки — сигнал, а не автоматическая скидка</text>
</svg>
