<svg xmlns="http://www.w3.org/2000/svg" width="1200" height="675" viewBox="0 0 1200 675">
  <defs>
    <linearGradient id="bg" x1="0" y1="0" x2="1" y2="1">
      <stop offset="0" stop-color="#06111f"/>
      <stop offset="0.55" stop-color="#0f172a"/>
      <stop offset="1" stop-color="#073042"/>
    </linearGradient>
    <filter id="soft"><feGaussianBlur stdDeviation="18"/></filter>
  </defs>
  <rect x="0" y="0" width="1200" height="675" fill="url(#bg)"/>
  <circle cx="980" cy="118" r="160" fill="#0ea5e9" opacity="0.15" filter="url(#soft)"/>
  <circle cx="190" cy="590" r="170" fill="#14b8a6" opacity="0.13" filter="url(#soft)"/>
  <g opacity="0.22" stroke="#7dd3fc" stroke-width="1">
    <path d="M82 560 C258 482 430 500 628 410 C812 326 972 318 1128 240" fill="none"/>
    <path d="M100 614 C310 520 510 548 706 444 C890 350 1012 362 1130 310" fill="none"/>
  </g>
  <g font-family="Arial, Helvetica, sans-serif">
    <text x="70" y="76" font-size="23" font-weight="800" fill="#7dd3fc">The Signal / Сигнал</text>
    <text x="70" y="148" font-size="54" font-weight="900" fill="#ffffff">Кто меняется быстрее</text>
    <text x="72" y="196" font-size="25" fill="#cbd5e1">Одна ставка ЦБ — три разных банковских реакции</text>
  </g>
  <g font-family="Arial, Helvetica, sans-serif">
    <rect x="78" y="280" width="320" height="210" rx="28" fill="#eff6ff" stroke="#60a5fa" stroke-width="2"/>
    <text x="238" y="334" text-anchor="middle" font-size="31" font-weight="900" fill="#1e3a8a">Вклад</text>
    <rect x="136" y="366" width="204" height="48" rx="16" fill="#dbeafe"/>
    <text x="238" y="398" text-anchor="middle" font-size="20" font-weight="850" fill="#1d4ed8">новая витрина</text>
    <text x="238" y="452" text-anchor="middle" font-size="21" font-weight="800" fill="#475569">может снизиться быстро</text>
    <rect x="440" y="280" width="320" height="210" rx="28" fill="#fff7ed" stroke="#fb923c" stroke-width="2"/>
    <text x="600" y="334" text-anchor="middle" font-size="31" font-weight="900" fill="#9a3412">Кредит</text>
    <rect x="498" y="366" width="204" height="48" rx="16" fill="#ffedd5"/>
    <text x="600" y="398" text-anchor="middle" font-size="20" font-weight="850" fill="#c2410c">риск заемщика</text>
    <text x="600" y="452" text-anchor="middle" font-size="21" font-weight="800" fill="#475569">не дешевеет сразу</text>
    <rect x="802" y="280" width="320" height="210" rx="28" fill="#f0fdf4" stroke="#34d399" stroke-width="2"/>
    <text x="962" y="334" text-anchor="middle" font-size="31" font-weight="900" fill="#166534">Ипотека</text>
    <rect x="860" y="366" width="204" height="48" rx="16" fill="#dcfce7"/>
    <text x="962" y="398" text-anchor="middle" font-size="20" font-weight="850" fill="#047857">длинный срок</text>
    <text x="962" y="452" text-anchor="middle" font-size="21" font-weight="800" fill="#475569">живет сложнее</text>
  </g>
  <rect x="232" y="550" width="736" height="64" rx="22" fill="#061827" stroke="#0891b2" stroke-width="1.6"/>
  <text x="600" y="590" text-anchor="middle" font-family="Arial, Helvetica, sans-serif" font-size="24" font-weight="900" fill="#ffffff">Смотрите не на новость, а на условия продукта</text>
</svg>
