<svg xmlns="http://www.w3.org/2000/svg" width="1200" height="675" viewBox="0 0 1200 675">
  <rect width="1200" height="675" fill="#111820"/>
  <circle cx="1028" cy="110" r="190" fill="#183447" opacity="0.62"/>
  <circle cx="150" cy="610" r="200" fill="#27323b" opacity="0.7"/>
  <text x="54" y="58" fill="#d7f4ef" font-family="Arial, sans-serif" font-size="24" font-weight="700">The Signal / Сигнал</text>
  <rect x="104" y="130" width="420" height="430" rx="34" fill="#eef4ef"/>
  <text x="314" y="194" text-anchor="middle" fill="#172029" font-family="Arial, sans-serif" font-size="34" font-weight="800">Разрешить?</text>
  <g font-family="Arial, sans-serif" font-size="24" font-weight="700" fill="#172029">
    <rect x="150" y="246" width="328" height="54" rx="17" fill="#ffffff"/>
    <text x="314" y="281" text-anchor="middle">геолокация</text>
    <rect x="150" y="326" width="328" height="54" rx="17" fill="#ffffff"/>
    <text x="314" y="361" text-anchor="middle">фото</text>
    <rect x="150" y="406" width="328" height="54" rx="17" fill="#ffffff"/>
    <text x="314" y="441" text-anchor="middle">контакты</text>
  </g>
  <rect x="610" y="158" width="510" height="318" rx="30" fill="#f3f6ee"/>
  <text x="865" y="238" text-anchor="middle" fill="#101820" font-family="Arial, sans-serif" font-size="52" font-weight="900">Один вопрос</text>
  <text x="865" y="310" text-anchor="middle" fill="#27323b" font-family="Arial, sans-serif" font-size="35" font-weight="800">это правда нужно</text>
  <text x="865" y="356" text-anchor="middle" fill="#27323b" font-family="Arial, sans-serif" font-size="35" font-weight="800">для функции?</text>
  <rect x="710" y="398" width="310" height="48" rx="24" fill="#f3b35d"/>
  <text x="865" y="431" text-anchor="middle" fill="#101820" font-family="Arial, sans-serif" font-size="24" font-weight="800">перед кнопкой</text>
  <path d="M524 338 C560 328, 580 318, 610 308" fill="none" stroke="#5ac8b8" stroke-width="5"/>
</svg>
