<svg xmlns="http://www.w3.org/2000/svg" width="1200" height="675" viewBox="0 0 1200 675">
  <defs>
    <linearGradient id="bg" x1="0" y1="0" x2="1" y2="1">
      <stop offset="0" stop-color="#07111f"/>
      <stop offset="0.55" stop-color="#111a3a"/>
      <stop offset="1" stop-color="#071a2a"/>
    </linearGradient>
    <linearGradient id="cyan" x1="0" y1="0" x2="1" y2="1">
      <stop offset="0" stop-color="#38bdf8"/>
      <stop offset="1" stop-color="#2dd4bf"/>
    </linearGradient>
    <filter id="shadow" x="-20%" y="-20%" width="140%" height="140%">
      <feDropShadow dx="0" dy="18" stdDeviation="20" flood-color="#020617" flood-opacity="0.38"/>
    </filter>
  </defs>
  <rect width="1200" height="675" fill="url(#bg)"/>
  <g opacity="0.18" stroke="#7dd3fc" stroke-width="1">
    <path d="M110 140 C280 72 490 96 650 180 C820 270 974 248 1100 172"/>
    <path d="M92 508 C248 448 420 482 580 548 C748 616 944 608 1118 520"/>
    <path d="M160 104 V574"/>
    <path d="M1040 96 V580"/>
    <path d="M92 338 H1110"/>
  </g>
  <text x="74" y="78" font-family="Arial, Helvetica, sans-serif" font-size="22" font-weight="800" fill="#7dd3fc">The Signal / Сигнал</text>

  <g font-family="Arial, Helvetica, sans-serif" text-anchor="middle">
    <text x="378" y="178" font-size="60" font-weight="850" fill="#ffffff">ИИ выбирает сайты</text>
    <text x="378" y="256" font-size="64" font-weight="850" fill="#ffffff">за вас</text>
    <rect x="258" y="302" width="240" height="8" rx="4" fill="#22c55e"/>
    <text x="378" y="370" font-size="28" font-weight="800" fill="#cbd5e1">почему это опаснее,</text>
    <text x="378" y="408" font-size="28" font-weight="800" fill="#cbd5e1">чем кажется?</text>
    <text x="378" y="482" font-size="22" fill="#94a3b8">поиск • покупки • новости • доверие</text>
  </g>

  <g filter="url(#shadow)" font-family="Arial, Helvetica, sans-serif">
    <rect x="690" y="96" width="396" height="486" rx="36" fill="#f8fafc"/>
    <rect x="728" y="136" width="320" height="64" rx="22" fill="#e0f2fe"/>
    <text x="888" y="176" text-anchor="middle" font-size="24" font-weight="850" fill="#075985">Запрос человека</text>

    <circle cx="888" cy="286" r="68" fill="url(#cyan)" opacity="0.95"/>
    <circle cx="888" cy="286" r="42" fill="#0f172a" opacity="0.94"/>
    <text x="888" y="298" text-anchor="middle" font-size="34" font-weight="850" fill="#ffffff">AI</text>

    <g stroke="#38bdf8" stroke-width="5" stroke-linecap="round" opacity="0.75">
      <path d="M888 202 V216"/>
      <path d="M888 356 V374"/>
      <path d="M820 286 H790"/>
      <path d="M956 286 H986"/>
    </g>

    <g font-size="18" font-weight="850">
      <rect x="742" y="398" width="112" height="70" rx="18" fill="#ecfeff" stroke="#67e8f9"/>
      <text x="798" y="438" text-anchor="middle" fill="#0e7490">сайты</text>
      <rect x="832" y="468" width="112" height="70" rx="18" fill="#f0fdf4" stroke="#86efac"/>
      <text x="888" y="508" text-anchor="middle" fill="#166534">цены</text>
      <rect x="922" y="398" width="112" height="70" rx="18" fill="#fff7ed" stroke="#fdba74"/>
      <text x="978" y="438" text-anchor="middle" fill="#9a3412">новости</text>
    </g>
  </g>
</svg>
