<svg xmlns="http://www.w3.org/2000/svg" width="1200" height="675" viewBox="0 0 1200 675">
  <defs>
    <linearGradient id="bg" x1="0" y1="0" x2="1" y2="1">
      <stop offset="0" stop-color="#121826"/>
      <stop offset="0.55" stop-color="#182238"/>
      <stop offset="1" stop-color="#0c3b3c"/>
    </linearGradient>
    <linearGradient id="screen" x1="0" y1="0" x2="1" y2="1">
      <stop offset="0" stop-color="#f7fbff"/>
      <stop offset="1" stop-color="#dce8f4"/>
    </linearGradient>
    <filter id="shadow" x="-20%" y="-20%" width="140%" height="140%">
      <feDropShadow dx="0" dy="14" stdDeviation="18" flood-color="#000000" flood-opacity="0.32"/>
    </filter>
  </defs>
  <rect width="1200" height="675" fill="url(#bg)"/>
  <rect x="52" y="42" width="226" height="42" rx="21" fill="#ffffff" opacity="0.1"/>
  <text x="72" y="69" font-family="Inter, Arial, sans-serif" font-size="22" font-weight="700" fill="#f4f8fb">The Signal / Сигнал</text>

  <circle cx="1000" cy="134" r="86" fill="#13b5a6" opacity="0.14"/>
  <circle cx="1036" cy="532" r="132" fill="#f5a623" opacity="0.1"/>
  <circle cx="160" cy="562" r="110" fill="#58a6ff" opacity="0.09"/>

  <g filter="url(#shadow)">
    <rect x="104" y="146" width="428" height="382" rx="42" fill="#202b43"/>
    <rect x="134" y="184" width="368" height="286" rx="30" fill="url(#screen)"/>
    <rect x="204" y="494" width="228" height="18" rx="9" fill="#0f172a" opacity="0.55"/>
  </g>

  <g>
    <circle cx="318" cy="297" r="74" fill="#0f766e" opacity="0.16"/>
    <path d="M258 295c35-68 92-68 120 0" fill="none" stroke="#0f766e" stroke-width="10" stroke-linecap="round"/>
    <path d="M250 324h136" fill="none" stroke="#f59e0b" stroke-width="9" stroke-linecap="round"/>
    <circle cx="286" cy="293" r="11" fill="#0f766e"/>
    <circle cx="350" cy="293" r="11" fill="#0f766e"/>
    <text x="318" y="400" text-anchor="middle" font-family="Inter, Arial, sans-serif" font-size="29" font-weight="800" fill="#132033">AI</text>
  </g>

  <g filter="url(#shadow)">
    <rect x="588" y="148" width="466" height="316" rx="34" fill="#f8fafc"/>
    <rect x="626" y="187" width="390" height="66" rx="19" fill="#e8f3f2"/>
    <text x="821" y="228" text-anchor="middle" font-family="Inter, Arial, sans-serif" font-size="27" font-weight="800" fill="#0f3f3f">Гаджет куплен</text>
    <text x="821" y="324" text-anchor="middle" font-family="Inter, Arial, sans-serif" font-size="54" font-weight="900" fill="#101828">AI по тарифу?</text>
    <text x="821" y="390" text-anchor="middle" font-family="Inter, Arial, sans-serif" font-size="27" font-weight="700" fill="#475467">почему умные функции</text>
    <text x="821" y="425" text-anchor="middle" font-family="Inter, Arial, sans-serif" font-size="27" font-weight="700" fill="#475467">становятся услугой</text>
  </g>

  <g filter="url(#shadow)">
    <rect x="678" y="492" width="286" height="72" rx="24" fill="#0f766e"/>
    <text x="821" y="537" text-anchor="middle" font-family="Inter, Arial, sans-serif" font-size="29" font-weight="900" fill="#ffffff">вещь или доступ?</text>
  </g>

  <g fill="none" stroke="#8ee5d8" stroke-width="5" stroke-linecap="round" opacity="0.8">
    <path d="M532 299h56"/>
    <path d="M548 283l40 16-40 16"/>
    <path d="M586 464c-24 34-52 51-88 55"/>
    <path d="M516 532l-28-12 24-18"/>
  </g>
</svg>
