<svg xmlns="http://www.w3.org/2000/svg" width="1200" height="675" viewBox="0 0 1200 675">
  <rect width="1200" height="675" fill="#f5f7fb"/>
  <rect x="48" y="36" width="226" height="42" rx="21" fill="#132033"/>
  <text x="68" y="63" font-family="Inter, Arial, sans-serif" font-size="22" font-weight="700" fill="#ffffff">The Signal / Сигнал</text>
  <text x="600" y="102" text-anchor="middle" font-family="Inter, Arial, sans-serif" font-size="40" font-weight="900" fill="#101828">Из чего состоит AI-функция</text>
  <text x="600" y="141" text-anchor="middle" font-family="Inter, Arial, sans-serif" font-size="22" font-weight="600" fill="#667085">покупатель видит кнопку, но за ней работает целая система</text>

  <g>
    <rect x="180" y="204" width="840" height="78" rx="20" fill="#ffffff" stroke="#d9dee8" stroke-width="2"/>
    <text x="600" y="253" text-anchor="middle" font-family="Inter, Arial, sans-serif" font-size="29" font-weight="800" fill="#101828">устройство</text>
    <rect x="216" y="304" width="768" height="78" rx="20" fill="#e8f3f2" stroke="#bddbd7" stroke-width="2"/>
    <text x="600" y="353" text-anchor="middle" font-family="Inter, Arial, sans-serif" font-size="29" font-weight="800" fill="#0f3f3f">аккаунт и регион доступа</text>
    <rect x="252" y="404" width="696" height="78" rx="20" fill="#fff6df" stroke="#f2d28b" stroke-width="2"/>
    <text x="600" y="453" text-anchor="middle" font-family="Inter, Arial, sans-serif" font-size="29" font-weight="800" fill="#7a4a00">модель, облако, лимиты</text>
    <rect x="288" y="504" width="624" height="78" rx="20" fill="#eef4ff" stroke="#cbdcf8" stroke-width="2"/>
    <text x="600" y="553" text-anchor="middle" font-family="Inter, Arial, sans-serif" font-size="29" font-weight="800" fill="#203864">обновления и поддержка</text>
  </g>

  <g stroke="#98a2b3" stroke-width="4" stroke-linecap="round">
    <path d="M600 282v22"/>
    <path d="M600 382v22"/>
    <path d="M600 482v22"/>
  </g>
  <g fill="#0f766e">
    <circle cx="150" cy="244" r="11"/>
    <circle cx="1050" cy="344" r="11"/>
    <circle cx="176" cy="444" r="11"/>
    <circle cx="1024" cy="544" r="11"/>
  </g>
</svg>
