<svg xmlns="http://www.w3.org/2000/svg" width="1200" height="675" viewBox="0 0 1200 675">
  <rect width="1200" height="675" fill="#111827"/>
  <rect x="48" y="36" width="226" height="42" rx="21" fill="#ffffff" opacity="0.1"/>
  <text x="68" y="63" font-family="Inter, Arial, sans-serif" font-size="22" font-weight="700" fill="#ffffff">The Signal / Сигнал</text>
  <text x="600" y="112" text-anchor="middle" font-family="Inter, Arial, sans-serif" font-size="42" font-weight="900" fill="#ffffff">Покупка или постоянный доступ</text>

  <g>
    <rect x="92" y="172" width="468" height="390" rx="34" fill="#f8fafc"/>
    <text x="326" y="230" text-anchor="middle" font-family="Inter, Arial, sans-serif" font-size="33" font-weight="900" fill="#101828">Разовая покупка</text>
    <rect x="214" y="286" width="224" height="154" rx="28" fill="#e6edf6" stroke="#c8d5e7" stroke-width="3"/>
    <rect x="242" y="316" width="168" height="76" rx="18" fill="#ffffff"/>
    <circle cx="326" cy="414" r="13" fill="#0f766e"/>
    <text x="326" y="493" text-anchor="middle" font-family="Inter, Arial, sans-serif" font-size="24" font-weight="800" fill="#344054">вещь работает сама</text>
  </g>

  <g>
    <rect x="640" y="172" width="468" height="390" rx="34" fill="#f8fafc"/>
    <text x="874" y="230" text-anchor="middle" font-family="Inter, Arial, sans-serif" font-size="33" font-weight="900" fill="#101828">Сервисная модель</text>
    <circle cx="874" cy="367" r="108" fill="#e8f3f2" stroke="#0f766e" stroke-width="5"/>
    <path d="M874 259a108 108 0 0 1 100 68" fill="none" stroke="#f59e0b" stroke-width="9" stroke-linecap="round"/>
    <path d="M974 327l-8-38 35 17" fill="#f59e0b"/>
    <path d="M874 475a108 108 0 0 1-100-68" fill="none" stroke="#0f766e" stroke-width="9" stroke-linecap="round"/>
    <path d="M774 407l8 38-35-17" fill="#0f766e"/>
    <text x="874" y="335" text-anchor="middle" font-family="Inter, Arial, sans-serif" font-size="24" font-weight="900" fill="#0f3f3f">ассистент</text>
    <text x="874" y="371" text-anchor="middle" font-family="Inter, Arial, sans-serif" font-size="24" font-weight="900" fill="#0f3f3f">облако</text>
    <text x="874" y="407" text-anchor="middle" font-family="Inter, Arial, sans-serif" font-size="24" font-weight="900" fill="#0f3f3f">лимиты</text>
    <text x="874" y="493" text-anchor="middle" font-family="Inter, Arial, sans-serif" font-size="24" font-weight="800" fill="#344054">доступ продлевается</text>
  </g>

  <g stroke="#8ee5d8" stroke-width="6" stroke-linecap="round" opacity="0.9">
    <path d="M572 367h56"/>
    <path d="M610 341l28 26-28 26"/>
  </g>
</svg>
