<svg xmlns="http://www.w3.org/2000/svg" width="1200" height="675" viewBox="0 0 1200 675">
  <rect width="1200" height="675" fill="#101828"/>
  <rect x="48" y="36" width="226" height="42" rx="21" fill="#ffffff" opacity="0.1"/>
  <text x="68" y="63" font-family="Inter, Arial, sans-serif" font-size="22" font-weight="700" fill="#ffffff">The Signal / Сигнал</text>
  <text x="600" y="116" text-anchor="middle" font-family="Inter, Arial, sans-serif" font-size="42" font-weight="900" fill="#ffffff">Пять вопросов перед покупкой</text>
  <text x="600" y="153" text-anchor="middle" font-family="Inter, Arial, sans-serif" font-size="22" font-weight="600" fill="#cbd5e1">если устройство обещает AI, сначала проверьте условия</text>

  <g fill="#ffffff">
    <rect x="170" y="210" width="860" height="64" rx="22"/>
    <rect x="170" y="294" width="860" height="64" rx="22"/>
    <rect x="170" y="378" width="860" height="64" rx="22"/>
    <rect x="170" y="462" width="860" height="64" rx="22"/>
    <rect x="170" y="546" width="860" height="64" rx="22"/>
  </g>
  <g fill="#0f766e" font-family="Inter, Arial, sans-serif" font-size="30" font-weight="900">
    <text x="218" y="251" text-anchor="middle">1</text>
    <text x="218" y="335" text-anchor="middle">2</text>
    <text x="218" y="419" text-anchor="middle">3</text>
    <text x="218" y="503" text-anchor="middle">4</text>
    <text x="218" y="587" text-anchor="middle">5</text>
  </g>
  <g font-family="Inter, Arial, sans-serif" font-size="26" font-weight="800" fill="#101828">
    <text x="600" y="250" text-anchor="middle">что бесплатно, а что только по тарифу?</text>
    <text x="600" y="334" text-anchor="middle">что останется без интернета?</text>
    <text x="600" y="418" text-anchor="middle">где обрабатываются данные?</text>
    <text x="600" y="502" text-anchor="middle">есть ли лимиты и региональные условия?</text>
    <text x="600" y="586" text-anchor="middle">что произойдет после отмены?</text>
  </g>
  <g stroke="#f59e0b" stroke-width="5" stroke-linecap="round" stroke-linejoin="round">
    <path d="M958 236l14 14 29-33"/>
    <path d="M958 320l14 14 29-33"/>
    <path d="M958 404l14 14 29-33"/>
    <path d="M958 488l14 14 29-33"/>
    <path d="M958 572l14 14 29-33"/>
  </g>
</svg>
